<?xml version="1.0" encoding="UTF-8"?>
<svg width="310px" height="314px" viewBox="0 0 310 314" version="1.1" xmlns="http://www.w3.org/2000/svg" xmlns:xlink="http://www.w3.org/1999/xlink">
    <!-- Generator: Sketch 53.2 (72643) - https://sketchapp.com -->
    <title>healthcare-and-medical</title>
    <desc>Created with Sketch.</desc>
    <g id="Icons" stroke="none" stroke-width="1" fill="none" fill-rule="evenodd">
        <g id="Artboard" transform="translate(-1575.000000, -207.000000)" fill-rule="nonzero">
            <g id="healthcare-and-medical" transform="translate(1575.000000, 207.000000)">
                <ellipse id="Oval" fill="#E1E6E9" cx="179" cy="130.5" rx="131" ry="130.5"></ellipse>
                <path d="M272,131.704079 C272,121.111286 264.247397,112.92603 254.556643,111.963387 C260.855789,108.593207 264.732091,101.852226 264.732091,94.1486018 C264.732091,83.0747974 256.0101,73.9262784 245.350583,73.9262784 C244.865889,73.9262784 244.865889,73.9262784 244.381195,73.9262784 C244.865889,72.4820041 245.350583,71.0371091 245.350583,69.1112031 C245.350583,58.0373987 236.628592,48.8888797 225.969075,48.8888797 C222.577468,48.8888797 219.669929,49.852143 216.763015,51.778049 C215.793628,41.1852557 207.556955,33 197.381508,33 C186.721366,33 178,42.1478984 178,53.2223234 C178,64.2967484 178,207.777677 178,207.777677 C178,218.851481 186.721991,228 197.381508,228 C207.556955,228 216.278946,219.333113 216.763015,208.74094 C220.154623,211.630109 224.030925,213.556015 228.39192,213.556015 C239.052062,213.556015 247.773428,204.408117 247.773428,193.333692 C247.773428,189.963512 246.80404,187.074342 245.350583,184.185794 C246.319971,184.185794 246.80404,184.667425 247.773428,184.667425 C258.433569,184.667425 267.154935,175.519527 267.154935,164.445102 C267.154935,158.667384 264.732091,153.371298 260.855789,149.519486 C267.639005,146.148685 272,139.889335 272,131.704079 Z" id="Path" fill="#FF06F4"></path>
                <g id="Group" transform="translate(173.000000, 28.000000)" fill="#193651">
                    <path d="M24.4395422,205.668284 C10.9620542,205.668284 0.372289157,194.564199 0.372289157,180.563045 L0.372289157,25.5844532 C0.372289157,11.5832991 11.4429277,0.479214502 24.4395422,0.479214502 C34.5478133,0.479214502 43.6930964,7.2386284 47.0629337,17.3774381 C48.9882892,16.8944894 50.9136446,16.4115408 52.839,16.4115408 C66.316488,16.4115408 76.906253,27.5156254 76.906253,41.5167795 C76.906253,41.5167795 76.906253,41.5167795 76.906253,41.9997281 C87.9768916,44.4138489 96.1598072,54.5526586 96.1598072,66.6226405 C96.1598072,72.4161571 94.2344518,78.2096737 90.383741,82.5549668 C98.0851627,86.9002598 102.898861,95.1078973 102.898861,104.28081 C102.898861,111.52255 100.010518,118.281964 94.7159458,123.110205 C97.1227952,126.97255 98.5666566,131.800792 98.5666566,137.11136 C98.5666566,149.66429 89.902247,159.8031 78.8316084,161.734272 C79.3131024,163.182495 79.3131024,164.631341 79.3131024,166.079565 C79.3131024,180.080719 68.2424639,191.184804 55.2458494,191.184804 C52.357506,191.184804 49.4697831,190.701855 46.5814398,189.253631 C43.2116024,198.90887 34.5478133,205.668284 24.4395422,205.668284 Z M24.4395422,9.65212689 C16.2566265,9.65212689 9.99906627,16.8938671 9.99906627,25.1015045 L9.99906627,180.079474 C9.99906627,188.77006 16.7381205,195.528852 24.4395422,195.528852 C32.1409639,195.528852 38.3985241,189.252387 38.8800181,181.044749 C38.8800181,179.113577 40.3238795,177.665353 41.7683614,176.699456 C43.2128434,175.733559 45.1375783,176.216508 46.5820602,177.182405 C52.8396205,182.492973 60.5410422,181.527698 65.354741,176.216508 C68.2430843,173.319438 69.6869458,169.457094 69.6869458,165.112423 C69.6869458,162.698302 69.2054518,160.76713 67.7615904,157.870683 C66.7986024,156.422459 67.2800964,154.491287 68.2430843,153.042441 C69.2060723,151.594218 71.1314277,150.62832 72.5752892,151.111269 C73.0567831,151.111269 73.5382771,151.111269 74.5006446,151.594218 L74.5006446,151.594218 C82.6835602,151.594218 88.9411205,144.834804 88.9411205,136.14484 C88.9411205,131.799547 87.497259,127.937202 84.1274217,125.040755 C83.6459277,124.07548 83.1644337,122.626634 83.1644337,121.178411 C83.1644337,119.730187 84.1274217,118.281341 85.5712831,117.799015 C90.3849819,114.901946 93.7541988,109.591378 93.7541988,104.28081 C93.7541988,96.5561208 87.9781325,89.7967069 80.7582048,88.831432 C78.8328494,88.831432 76.907494,86.9002598 76.426,84.9690876 C75.944506,83.0379154 76.907494,80.6237946 78.8328494,79.6585196 C83.6465482,76.7614502 86.5342711,71.9338308 86.5342711,66.1403142 C86.5342711,57.4497281 80.2767108,50.6909366 72.5752892,50.6909366 C72.0937952,50.6909366 71.6123012,50.6909366 71.6123012,50.6909366 C70.1684398,50.6909366 68.7239578,50.2079879 67.7615904,48.7597644 C66.7986024,47.7938671 66.3177289,45.8626949 66.7986024,44.4144713 L67.2800964,42.9662477 C67.7615904,42.0003505 67.7615904,41.0350755 67.7615904,40.5521269 C67.7615904,31.8615408 61.0225361,25.1027492 53.3211145,25.1027492 C51.395759,25.1027492 48.9889096,25.5856979 46.5820602,27.0339215 C45.1381988,27.9998187 43.2128434,27.9998187 41.7683614,27.0339215 C40.3238795,26.0680242 39.361512,24.6198006 39.361512,23.171577 C37.9170301,15.9285921 31.6594699,9.65212689 24.4395422,9.65212689 Z" id="Shape"></path>
                    <path d="M44.1745904,77.7267251 L44.1745904,77.7267251 C41.286247,77.7267251 39.3608916,75.7955529 39.3608916,72.8984834 C39.3608916,70.0014139 41.286247,68.0702417 44.1745904,68.0702417 L44.1745904,68.0702417 L44.1745904,68.0702417 C49.4691627,68.0702417 54.7643554,65.6561208 59.0959398,61.3108278 C63.4281446,56.9655347 65.834994,51.1720181 65.834994,45.8614502 C65.834994,42.9643807 67.7603494,41.0332085 70.6486928,41.0332085 C73.5370361,41.0332085 75.4623916,42.9643807 75.4623916,45.8614502 C75.4623916,53.586139 72.0931747,61.7937764 65.8356145,68.0702417 C60.0589277,74.3473293 52.357506,77.7267251 44.1745904,77.7267251 Z" id="Path"></path>
                    <path d="M43.6930964,186.35594 C40.804753,186.35594 38.8793976,184.424767 38.8793976,181.527698 C38.8793976,174.285958 31.6594699,167.526544 24.4389217,167.526544 C21.5505783,167.526544 19.6252229,165.595372 19.6252229,162.698302 C19.6252229,159.801233 21.5505783,157.87006 24.4389217,157.87006 C36.9540422,157.87006 48.5061747,168.974145 48.5061747,181.527076 C48.5067952,184.424767 46.0999458,186.35594 43.6930964,186.35594 Z" id="Path"></path>
                    <path d="M57.6520783,151.59484 L57.6520783,151.59484 C54.7637349,151.59484 52.8383795,149.663668 52.8383795,146.766598 C52.8383795,130.351323 71.6110602,117.316066 87.9762711,117.316066 L87.9762711,117.316066 C90.8646145,117.316066 92.7899699,119.247239 92.7899699,122.144308 C92.7899699,125.041378 90.8646145,126.97255 87.9762711,126.97255 L87.9762711,126.97255 C76.4241386,126.97255 62.4651566,136.145462 62.4651566,146.767221 C62.4657771,149.180719 60.5404217,151.59484 57.6520783,151.59484 Z" id="Path"></path>
                </g>
                <path d="M85,129.295921 C85,139.888714 92.7526031,148.07397 102.443357,149.036613 C96.1442108,152.406793 92.2679092,159.147774 92.2679092,166.851398 C92.2679092,177.925203 100.9899,187.073722 111.649417,187.073722 C112.134111,187.073722 112.134111,187.073722 112.618805,187.073722 C112.134111,188.517996 111.649417,189.962891 111.649417,191.888797 C111.649417,202.962601 120.371408,212.11112 131.030925,212.11112 C134.422532,212.11112 137.330071,211.147857 140.236985,209.221951 C141.206372,219.814744 149.443045,228 159.618492,228 C170.278634,228 179,218.852102 179,207.777677 C179,196.703252 179,53.2223234 179,53.2223234 C179,42.148519 170.278009,33 159.618492,33 C149.443045,33 140.721054,41.6668873 140.236985,52.25906 C136.845377,49.3698907 132.969075,47.4439847 128.60808,47.4439847 C117.947938,47.4439847 109.226572,56.591883 109.226572,67.6663081 C109.226572,71.0364884 110.19596,73.9256577 111.649417,76.8142064 C110.680029,76.8142064 110.19596,76.3325747 109.226572,76.3325747 C98.5664308,76.3325747 89.8450646,85.4804731 89.8450646,96.5548981 C89.8450646,102.332616 92.2679092,107.628702 96.1442108,111.480514 C89.3609954,114.851315 85,121.592297 85,129.295921 Z" id="Path" fill="#1EE4EC"></path>
                <g id="Group" transform="translate(80.000000, 28.000000)" fill="#193651">
                    <path d="M79.3618732,205.668284 C69.1899317,205.668284 59.9870439,198.90887 56.5959805,188.770683 C54.6584976,189.253631 52.7210146,189.73658 50.7835317,189.73658 C37.2211512,189.73658 26.5646829,178.632495 26.5646829,164.631341 C26.5646829,164.631341 26.5646829,164.631341 26.5646829,164.148393 C15.4243122,161.734272 7.18985366,151.595462 7.18985366,139.52548 C7.18985366,133.731964 9.12733659,127.938447 13.0023024,123.593154 C5.25237073,119.247861 0.40835122,111.040224 0.40835122,101.867311 C0.40835122,94.625571 3.3148878,87.8661571 8.64280976,83.0379154 C6.2208,79.175571 4.7678439,74.3473293 4.7678439,69.0367613 C4.7678439,56.4838308 13.4868293,46.3450211 24.6272,44.4138489 C24.1426732,42.9656254 24.1426732,41.5167795 24.1426732,40.0685559 C24.1426732,26.0674018 35.2830439,14.9633172 48.361522,14.9633172 C51.2680585,14.9633172 54.1739707,15.4462659 57.0805073,16.8944894 C60.4709463,7.2386284 69.1899317,0.479214502 79.8464,0.479214502 C93.4087805,0.479214502 104.065249,11.5832991 104.065249,25.5844532 L104.065249,180.562423 C103.580722,194.563577 92.9242537,205.668284 79.3618732,205.668284 Z M59.9870439,177.183027 C60.9560976,177.183027 61.44,177.183027 62.4090537,177.665976 C63.8620098,178.631873 64.8310634,180.080097 64.8310634,181.52832 C65.3155902,189.735958 71.6125659,195.529474 79.3624976,195.529474 L79.3624976,195.529474 C87.5969561,195.529474 93.8939317,188.287734 93.8939317,180.080097 L93.8939317,25.5844532 C93.8939317,16.8938671 87.1124293,10.1350755 79.3624976,10.1350755 C71.6125659,10.1350755 65.3155902,16.4115408 64.8310634,24.6191782 C64.8310634,26.5503505 63.3781073,27.998574 61.9245268,28.9644713 C60.4715707,29.9303686 58.5340878,29.4474199 57.0805073,28.4815227 C54.1739707,26.0674018 51.2680585,25.1021269 48.361522,25.1021269 C40.1270634,25.1021269 33.8300878,32.3438671 33.8300878,40.5515045 C33.8300878,42.9656254 34.3146146,44.8967976 35.7675707,47.7932447 C36.7366244,49.2414683 36.2520976,51.1726405 35.2830439,52.6214864 C34.3139902,54.06971 32.3765073,55.0356073 30.9235512,54.5526586 C30.4390244,54.5526586 29.9544976,54.5526586 28.9860683,54.06971 C25.1111024,54.06971 21.7206634,55.5179335 18.8141268,58.415003 C15.9075902,61.3120725 14.4546341,65.1744169 14.4546341,69.5190876 C14.4546341,73.8643807 15.9075902,77.7267251 19.2986537,80.6231722 C20.2677073,81.5890695 20.7516098,83.0372931 20.7516098,84.4855166 C20.7516098,85.9337402 19.7825561,87.3825861 18.3296,87.8649124 C13.4855805,90.7619819 10.0951415,96.0725498 10.0951415,101.383118 C10.0951415,109.107807 15.9075902,115.867221 23.1729951,116.832495 C25.110478,116.832495 27.047961,118.763668 27.5324878,120.69484 C28.0170146,122.626012 27.047961,125.040133 25.110478,126.005408 C19.7825561,128.902477 16.8760195,133.730097 16.8760195,139.523613 C16.8760195,148.214199 23.1729951,154.972991 30.9229268,154.972991 C31.4074537,154.972991 31.8919805,154.972991 31.8919805,154.972991 C33.3449366,154.972991 34.7985171,155.45594 35.7669463,156.904163 C36.736,157.87006 37.2199024,159.801233 36.736,161.249456 L36.2514732,162.69768 C36.2514732,163.180628 36.2514732,164.145903 36.2514732,164.628852 C36.2514732,173.319438 43.0329756,180.07823 50.7829073,180.07823 C52.7203902,180.07823 55.1424,179.595281 57.5644098,178.147057 C58.5334634,177.665976 59.5025171,177.183027 59.9870439,177.183027 Z" id="Shape"></path>
                    <path d="M79.3618732,47.7932447 L79.3618732,47.7932447 C66.767922,47.7932447 55.6275512,36.6891601 55.6275512,24.1362296 C55.6275512,21.2391601 57.5650341,19.3079879 60.4715707,19.3079879 C63.3781073,19.3079879 65.3155902,21.2391601 65.3155902,24.1362296 C65.3155902,31.3779698 72.5809951,38.1373837 79.8470244,38.1373837 C82.753561,38.1373837 84.6910439,40.0685559 84.6910439,42.9656254 C84.2058927,45.3791239 81.7838829,47.7932447 79.3618732,47.7932447 Z" id="Path"></path>
                    <path d="M15.4243122,88.8308097 C12.5177756,88.8308097 10.5802927,86.8996375 10.5802927,84.002568 C10.5802927,81.1054985 12.5177756,79.1743263 15.4243122,79.1743263 L15.4243122,79.1743263 C21.236761,79.1743263 28.0182634,76.7602054 32.8616585,72.897861 C35.7681951,70.4837402 41.0961171,65.6561208 41.0961171,59.3796556 C41.0961171,56.4825861 43.0336,54.5514139 45.9401366,54.5514139 L45.9401366,54.5514139 C48.8466732,54.5514139 50.7841561,56.4825861 50.7841561,59.3796556 C50.7841561,67.1043444 46.4246634,74.8290332 38.6747317,80.6225498 C31.8932293,85.9343625 23.1742439,88.8308097 15.4243122,88.8308097 Z" id="Path"></path>
                    <path d="M98.7367024,139.041909 C95.8301659,139.041909 93.8926829,137.110737 93.8926829,134.213668 C93.8926829,118.281341 106.970537,105.246085 122.954927,105.246085 C125.861463,105.246085 127.798946,107.177257 127.798946,110.074326 C127.798946,112.971396 125.861463,114.902568 122.954927,114.902568 C112.298459,114.902568 103.580098,123.593154 103.580098,134.21429 C103.580722,137.110737 101.643239,139.041909 98.7367024,139.041909 Z" id="Path"></path>
                    <path d="M73.5494244,95.1072749 C70.6428878,95.1072749 68.7054049,93.1761027 68.7054049,90.2790332 C68.7054049,74.3467069 81.7832585,61.3114502 97.7676488,61.3114502 C100.674185,61.3114502 102.611668,63.2426224 102.611668,66.1396918 C102.611668,69.0367613 100.674185,70.9679335 97.7676488,70.9679335 C87.1111805,70.9679335 78.3928195,79.6585196 78.3928195,90.2796556 C78.3934439,93.1761027 76.4553366,95.1072749 73.5494244,95.1072749 Z" id="Path"></path>
                </g>
                <path d="M160,170.010807 C160,130.99026 127.637813,100.158713 88.0306195,102.085646 C54.7027218,103.53069 26.6877868,130.026483 23.3062446,163.74812 C20.8910351,189.762024 32.9664596,212.885219 52.2868898,226.373749 C57.5998524,230.227615 60.9813946,236.490302 60.9813946,242.752989 L60.9813946,289 L122.324227,289 L122.324227,242.752989 C122.324227,236.490302 125.222603,230.227615 130.535566,226.373749 C147.924576,213.848996 160,193.134002 160,170.010807 Z" id="Path" fill="#FFFFFF"></path>
                <path d="M121.914637,293 L60.9172896,293 C58.0123569,293 56.075943,291.069425 56.075943,288.173251 L56.075943,241.83882 C56.075943,236.529894 53.6552698,232.185944 49.2981827,229.28977 C27.5133713,214.327966 15.8948884,188.264888 18.3155617,162.20181 C21.7041299,126.485856 51.718856,98.0094028 87.5428235,96.0788275 C129.660292,94.1482522 165,127.933632 165,169.441312 C165,193.573815 153.381517,215.775742 133.53312,229.772569 C129.660292,232.668743 127.239619,237.012071 127.239619,242.32162 L127.239619,288.65605 C126.755983,290.586625 124.818945,293 121.914637,293 Z M65.7580121,283.346501 L117.55755,283.346501 L117.55755,241.83882 C117.55755,233.63372 121.430377,225.911418 128.208138,221.567468 C144.667967,209.501217 155.317931,190.195464 155.317931,169.441312 C155.317931,133.242558 124.818945,104.283928 88.5107184,106.214504 C57.0438379,107.662279 31.3861989,132.277582 27.9970067,163.166787 C25.5763334,186.333691 35.742662,208.052819 55.1068001,221.567468 C61.8845604,226.394218 65.7573881,234.116519 65.7573881,242.32162 C65.7580121,242.32162 65.7580121,283.346501 65.7580121,283.346501 Z" id="Shape" fill="#193651"></path>
                <path d="M91.6403411,118 C90.6709728,118 89.702229,118 89.2175448,118 C64.5061469,118.968042 42.7022294,139.290052 40.2794331,164.451646 C38.341321,183.322842 46.5784536,200.741976 62.0833506,211.870711 C72.2585954,218.64513 78.0729317,230.257886 78.0729317,242.354662 L78.0729317,253 L105.206501,253 L105.206501,242.354038 C105.206501,230.257262 111.020838,218.644506 120.711398,211.870087 C134.762867,202.192791 143,186.225096 143,169.77338 C143.001249,141.225511 119.743279,118 91.6403411,118 Z" id="Path" fill="#FF06F4"></path>
                <rect id="Rectangle" fill="#193651" x="289" y="126" width="10" height="10"></rect>
                <polygon id="Rectangle" fill="#193651" transform="translate(278.781001, 73.093694) rotate(150.007099) translate(-278.781001, -73.093694) " points="273.950841 68.0250751 283.606169 68.0298295 283.611162 78.1623124 273.955833 78.157558"></polygon>
                <polygon id="Rectangle" fill="#193651" transform="translate(236.333626, 30.766170) rotate(120.021344) translate(-236.333626, -30.766170) " points="231.506808 25.6952831 241.15545 25.7000396 241.160444 35.8370574 231.511802 35.8323008"></polygon>
                <rect id="Rectangle" fill="#193651" x="173" y="241" width="10" height="10"></rect>
                <rect id="Rectangle" fill="#193651" x="173" y="10" width="10" height="10"></rect>
                <polygon id="Rectangle" fill="#193651" transform="translate(236.460114, 231.022780) rotate(150.007099) translate(-236.460114, -231.022780) " points="231.388611 226.195366 241.526862 226.200358 241.531616 235.850194 231.393366 235.845201"></polygon>
                <polygon id="Rectangle" fill="#193651" transform="translate(120.449645, 30.422802) rotate(150.007099) translate(-120.449645, -30.422802) " points="115.378142 25.5953884 125.516393 25.6003806 125.521147 35.2502162 115.382896 35.245224"></polygon>
                <polygon id="Rectangle" fill="#193651" transform="translate(278.805524, 188.517470) rotate(120.005690) translate(-278.805524, -188.517470) " points="273.737146 183.687556 283.869145 183.69255 283.873901 193.347383 273.741902 193.34239"></polygon>
                <polygon id="Rectangle" fill="#193651" transform="translate(78.014998, 72.973019) rotate(119.992901) translate(-78.014998, -72.973019) " points="72.9463798 68.1428588 83.0788626 68.147851 83.083617 77.8031796 72.9511342 77.7981874"></polygon>
                <rect id="Rectangle" fill="#193651" x="0" y="161" width="10" height="10"></rect>
                <polygon id="Rectangle" fill="#193651" transform="translate(16.869050, 208.609131) rotate(149.999272) translate(-16.869050, -208.609131) " points="12.0390669 203.540697 21.6940408 203.545452 21.6990336 213.677566 12.0440597 213.672811"></polygon>
                <polygon id="Rectangle" fill="#193651" transform="translate(48.127596, 91.767081) rotate(150.007099) translate(-48.127596, -91.767081) " points="43.0560935 86.9396673 53.1943441 86.9446595 53.1990985 96.5944951 43.0608479 96.5895029"></polygon>
                <polygon id="Rectangle" fill="#193651" transform="translate(16.766839, 123.191298) rotate(119.992901) translate(-16.766839, -123.191298) " points="11.6982206 118.361137 21.8307035 118.366129 21.8354579 128.021458 11.702975 128.016466"></polygon>
                <path d="M75,289 L75,293.285802 C75,301.857406 82.2725,309 91,309 C99.7275,309 107,301.857406 107,293.285802 L107,289 L75,289 Z" id="Path" fill="#FFFFFF"></path>
                <path d="M107.116074,284 L74.8839259,284 C71.9534445,284 70,285.935424 70,288.838871 L70,293.193729 C70,304.806271 79.2787038,314 91,314 C102.721296,314 112,304.806894 112,293.193729 L112,288.838871 C112,285.936047 109.558037,284 107.116074,284 Z M91,304.322259 C85.1396666,304.322259 80.2557408,299.483388 79.7678518,293.677118 L102.232778,293.677118 C101.744259,299.484012 96.8603334,304.322259 91,304.322259 Z" id="Shape" fill="#193651"></path>
                <path d="M120.099798,168.96102 C120.099798,168.96102 120.099798,169.449345 120.099798,168.96102 C126.763027,176.283366 121.051951,188 112.008955,188 L102.014419,188 L102.014419,177.748339 C101.538343,167.985001 112.960494,162.126999 120.099798,168.96102 L120.099798,168.96102 Z" id="Path" fill="#FFFFFF"></path>
                <path d="M112.103936,192 L101.8724,192 C98.9488343,192 97,190.092355 97,187.23058 L97,177.21529 C97,168.15413 104.307971,161 113.565405,161 C117.463074,161 121.360742,162.43058 124.284308,165.292355 L124.771673,165.76942 C129.156707,170.061775 130.13081,176.261775 127.695239,182.461775 C124.771673,188.18471 118.92517,192 112.103936,192 Z M106.744799,182.461775 L112.103936,182.461775 C115.514239,182.461775 117.463074,180.077065 118.437805,178.16942 C118.92517,177.21529 119.899274,174.35413 117.463074,171.96942 C116.001605,170.53884 115.026874,170.061775 113.565405,170.061775 C110.155102,170.061775 106.744171,172.446485 106.744171,176.73884 L106.744171,182.461775 L106.744799,182.461775 Z" id="Shape" fill="#193651"></path>
                <path d="M62.9021943,168.96102 C62.9021943,168.96102 62.9021943,169.449345 62.9021943,168.96102 C56.2343877,176.283366 61.9493874,188 70.9985972,188 L81,188 L81,177.748339 C81,167.985001 69.5693868,162.126999 62.9021943,168.96102 L62.9021943,168.96102 Z" id="Path" fill="#FFFFFF"></path>
                <g id="Group" transform="translate(46.000000, 161.000000)" fill="#193651">
                    <path d="M34.5444828,31.3047717 L24.4328276,31.3047717 C18.1731724,31.3047717 11.9135172,27.45975 9.50648276,21.2114348 C7.09882759,15.4439022 8.06213793,9.19558696 12.3957931,4.86978261 L12.8774483,4.389 C15.7667586,1.50492391 19.6187586,0.0631956522 23.4707586,0.0631956522 C32.6191034,0.0631956522 39.842069,7.27245652 39.842069,16.4048478 L39.842069,26.4981848 C39.3591724,28.9014783 37.4331724,31.3047717 34.5444828,31.3047717 Z M23.4695172,9.67636957 C22.0251724,9.67636957 21.0618621,10.1571522 19.6175172,11.1180978 C17.2098621,13.5213913 18.1731724,16.4048478 18.1731724,17.366413 C19.1364828,19.2889239 21.0624828,21.6922174 24.4328276,21.6922174 L29.7291724,21.6922174 L29.7291724,16.4054674 C29.7291724,12.079663 26.3588276,9.67636957 23.4695172,9.67636957 Z" id="Shape"></path>
                    <path d="M55.2488276,96.1905978 C52.3595172,96.1905978 50.4335172,94.268087 50.4335172,91.3840109 L50.4335172,31.3047717 L39.3591724,31.3047717 L39.3591724,91.3840109 C39.3591724,94.268087 37.4331724,96.1905978 34.5438621,96.1905978 C31.6545517,96.1905978 29.7285517,94.268087 29.7285517,91.3840109 L29.7285517,26.4988043 C29.7285517,23.6147283 31.6545517,21.6922174 34.5438621,21.6922174 L55.2488276,21.6922174 C58.1381379,21.6922174 60.0641379,23.6147283 60.0641379,26.4988043 L60.0641379,91.3840109 C60.0641379,93.7873043 58.1381379,96.1905978 55.2488276,96.1905978 Z" id="Path"></path>
                    <path d="M84.6204828,96.1905978 L5.1722069,96.1905978 C2.28289655,96.1905978 0.356896552,94.268087 0.356896552,91.3840109 C0.356896552,88.4999348 2.28289655,86.5774239 5.1722069,86.5774239 L84.6204828,86.5774239 C87.5097931,86.5774239 89.4357931,88.4999348 89.4357931,91.3840109 C89.4357931,93.7873043 87.5097931,96.1905978 84.6204828,96.1905978 Z" id="Path"></path>
                    <path d="M84.6204828,113.973978 L5.1722069,113.973978 C2.28289655,113.973978 0.356896552,112.051467 0.356896552,109.167391 C0.356896552,106.283315 2.28289655,104.360804 5.1722069,104.360804 L84.6204828,104.360804 C87.5097931,104.360804 89.4357931,106.283315 89.4357931,109.167391 C89.4357931,112.051467 87.5097931,113.973978 84.6204828,113.973978 Z" id="Path"></path>
                </g>
            </g>
        </g>
    </g>
</svg>