<?xml version="1.0" encoding="UTF-8"?>
<svg width="253px" height="284px" viewBox="0 0 253 284" version="1.1" xmlns="http://www.w3.org/2000/svg" xmlns:xlink="http://www.w3.org/1999/xlink">
    <!-- Generator: Sketch 53.2 (72643) - https://sketchapp.com -->
    <title>files-and-folders</title>
    <desc>Created with Sketch.</desc>
    <g id="Icons" stroke="none" stroke-width="1" fill="none" fill-rule="evenodd">
        <g id="Artboard" transform="translate(-2643.000000, -217.000000)" fill-rule="nonzero">
            <g id="files-and-folders" transform="translate(2642.472789, 217.000000)">
                <path d="M49.5406644,32.8022508 C105.237777,32.8022508 143.485757,4 170.323761,4 C197.161766,4 253.527211,19.4019293 253.527211,142.657556 C253.527211,265.913183 177.699583,284 148.180194,284 C9.94796514,284.008039 -49.0988649,32.8022508 49.5406644,32.8022508 Z" id="Path" fill="#EFEFEF"></path>
                <path d="M145.398179,79 L129.269146,79 L129.269146,87 C129.269146,91.416 125.656243,95 121.20463,95 L76.8497915,95 C72.3981786,95 68.7852754,91.416 68.7852754,87 L68.7852754,79 L52.6562431,79 C43.7852754,79 36.5272109,86.2 36.5272109,95 L36.5272109,195 C36.5272109,203.8 43.7852754,211 52.6562431,211 L145.398179,211 C154.269146,211 161.527211,203.8 161.527211,195 L161.527211,95 C161.527211,86.2 154.269146,79 145.398179,79 Z" id="Path" fill="#F3F3F1"></path>
                <path d="M129.527211,70 L129.527211,86 C129.527211,90.416 125.943211,94 121.527211,94 L77.5272109,94 C73.1112109,94 69.5272109,90.416 69.5272109,86 L69.5272109,70 L83.5272109,70 C83.5272109,61.2 90.7272109,54 99.5272109,54 C108.327211,54 115.527211,61.2 115.527211,70 L129.527211,70 Z" id="Path" fill="#FF06F4"></path>
                <circle id="Oval" fill="#1EE4EC" cx="171.027211" cy="188.5" r="46.5"></circle>
                <path d="M146.527211,86 L146.527211,78.2 C145.863211,78.112 145.215211,78 144.527211,78 L128.527211,78 L128.527211,86 C128.527211,90.416 124.943211,94 120.527211,94 L138.527211,94 C142.943211,94 146.527211,90.416 146.527211,86 Z" id="Path" fill="#D5DBE1"></path>
                <path d="M54.5272109,195 L54.5272109,95 C54.5272109,86.888 60.6712109,80.208 68.5272109,79.2 L68.5272109,79 L52.5272109,79 C43.7272109,79 36.5272109,86.2 36.5272109,95 L36.5272109,195 C36.5272109,203.8 43.7272109,211 52.5272109,211 L70.5272109,211 C61.7272109,211 54.5272109,203.8 54.5272109,195 Z" id="Path" fill="#D5DBE1"></path>
                <path d="M87.5272109,86 L87.5272109,70 L101.527211,70 C101.527211,64.536 104.311211,59.688 108.527211,56.8 C105.959211,55.04 102.863211,54 99.5272109,54 C90.7272109,54 83.5272109,61.2 83.5272109,70 L69.5272109,70 L69.5272109,86 C69.5272109,90.416 73.1112109,94 77.5272109,94 L95.5272109,94 C91.1112109,94 87.5272109,90.416 87.5272109,86 Z" id="Path" fill="#FF06F4"></path>
                <path d="M142.527211,188.5 C142.527211,165.937391 158.431211,147.135217 179.527211,142.905739 C176.615211,142.323478 173.607211,142 170.527211,142 C145.119211,142 124.527211,162.815826 124.527211,188.5 C124.527211,214.184174 145.119211,235 170.527211,235 C173.607211,235 176.615211,234.684609 179.527211,234.094261 C158.431211,229.864783 142.527211,211.062609 142.527211,188.5 L142.527211,188.5 Z" id="Path" fill="#FF06F4"></path>
                <path d="M170.527211,240 C141.855211,240 118.527211,216.672 118.527211,188 C118.527211,159.328 141.855211,136 170.527211,136 C199.199211,136 222.527211,159.328 222.527211,188 C222.527211,216.672 199.199211,240 170.527211,240 Z M170.527211,148 C148.471211,148 130.527211,165.944 130.527211,188 C130.527211,210.056 148.471211,228 170.527211,228 C192.583211,228 210.527211,210.056 210.527211,188 C210.527211,165.944 192.583211,148 170.527211,148 Z" id="Shape" fill="#000000"></path>
                <polygon id="Path" fill="#000000" points="165.527211 201 177.527211 201 177.527211 220 165.527211 220"></polygon>
                <path d="M173.190379,212 L155.535207,212 L155.535207,200 L173.190379,200 C174.461744,200 175.525212,198.624 175.525212,197 C175.525212,195.376 174.461744,194 173.190379,194 L169.856046,194 C161.955996,194 155.527211,187.272 155.527211,179 C155.527211,170.728 161.955996,164 169.856046,164 L187.519215,164 L187.519215,176 L169.864042,176 C168.592678,176 167.52921,177.376 167.52921,179 C167.52921,180.624 168.592678,182 169.864042,182 L173.198375,182 C181.098425,182 187.527211,188.728 187.527211,197 C187.527211,205.272 181.090429,212 173.190379,212 Z" id="Path" fill="#000000"></path>
                <polygon id="Path" fill="#000000" points="165.527211 157 177.527211 157 177.527211 176 165.527211 176"></polygon>
                <path d="M103.527211,217 L52.371607,217 C40.3293872,217 30.5272109,207.0675 30.5272109,194.847222 L30.5272109,94.1527778 C30.5272109,81.9325 40.3293872,72 52.371607,72 L67.3052305,72 L67.3052305,84.0833333 L52.371607,84.0833333 C46.8985928,84.0833333 42.442336,88.6025 42.442336,94.1527778 L42.442336,194.847222 C42.442336,200.3975 46.8985928,204.916667 52.371607,204.916667 L103.527211,204.916667 L103.527211,217 Z" id="Path" fill="#000000"></path>
                <path d="M167.527211,119 L155.189549,119 L155.189549,94.6609589 C155.189549,89.2339041 150.575263,84.8150685 144.908163,84.8150685 L129.527211,84.8150685 L129.527211,73 L144.908163,73 C157.377427,73 167.527211,82.7119863 167.527211,94.6609589 L167.527211,119 Z" id="Path" fill="#000000"></path>
                <path d="M120.527211,100 L76.5272109,100 C68.8072109,100 62.5272109,93.72 62.5272109,86 L62.5272109,70 C62.5272109,66.688 65.2152109,64 68.5272109,64 L77.3592109,64 C79.9752109,54.776 88.4792109,48 98.5272109,48 C108.575211,48 117.079211,54.776 119.695211,64 L128.527211,64 C131.839211,64 134.527211,66.688 134.527211,70 L134.527211,86 C134.527211,93.72 128.247211,100 120.527211,100 Z M74.5272109,76 L74.5272109,86 C74.5272109,87.104 75.4232109,88 76.5272109,88 L120.527211,88 C121.631211,88 122.527211,87.104 122.527211,86 L122.527211,76 L114.527211,76 C111.215211,76 108.527211,73.312 108.527211,70 C108.527211,64.488 104.039211,60 98.5272109,60 C93.0152109,60 88.5272109,64.488 88.5272109,70 C88.5272109,73.312 85.8392109,76 82.5272109,76 L74.5272109,76 Z" id="Shape" fill="#000000"></path>
                <polygon id="Path" fill="#000000" points="60.5272109 113 136.527211 113 136.527211 125 60.5272109 125"></polygon>
                <polygon id="Path" fill="#000000" points="60.5272109 136 118.527211 136 118.527211 148 60.5272109 148"></polygon>
                <polygon id="Path" fill="#000000" points="59.5272109 161 103.527211 161 103.527211 173 59.5272109 173"></polygon>
                <path d="M233.527211,154 C226.911211,154 221.527211,148.616 221.527211,142 C221.527211,135.384 226.911211,130 233.527211,130 C240.143211,130 245.527211,135.384 245.527211,142 C245.527211,148.616 240.143211,154 233.527211,154 Z M233.527211,138 C231.319211,138 229.527211,139.8 229.527211,142 C229.527211,144.2 231.319211,146 233.527211,146 C235.735211,146 237.527211,144.2 237.527211,142 C237.527211,139.8 235.735211,138 233.527211,138 Z" id="Shape" fill="#A4AFC1"></path>
                <g id="Group" transform="translate(67.527211, 0.000000)" fill="#A4AFC1">
                    <polygon id="Path" points="47.1111111 25.9675 63.2296296 25.9675 63.2296296 33.9575 47.1111111 33.9575"></polygon>
                    <polygon id="Path" points="0.77037037 25.9675 16.8888889 25.9675 16.8888889 33.9575 0.77037037 33.9575"></polygon>
                    <polygon id="Path" points="28.9777778 0 37.037037 0 37.037037 15.98 28.9777778 15.98"></polygon>
                </g>
            </g>
        </g>
    </g>
</svg>