<?xml version="1.0" encoding="UTF-8"?>
<svg width="264px" height="294px" viewBox="0 0 264 294" version="1.1" xmlns="http://www.w3.org/2000/svg" xmlns:xlink="http://www.w3.org/1999/xlink">
    <!-- Generator: Sketch 53.2 (72643) - https://sketchapp.com -->
    <title>time</title>
    <desc>Created with Sketch.</desc>
    <g id="Icons" stroke="none" stroke-width="1" fill="none" fill-rule="evenodd">
        <g id="Artboard" transform="translate(-659.000000, -217.000000)" fill-rule="nonzero">
            <g id="time" transform="translate(659.000000, 217.000000)">
                <path d="M211.355867,27.9206339 C153.085044,29.0111377 112.493497,-0.525454405 84.4156395,0.00711723356 C56.3377824,0.539688872 -2.34595006,17.8355869 0.0725208232,147.436472 C2.4909917,277.037358 82.1825566,294.561501 113.074941,293.986662 C257.70287,291.273083 314.566429,25.9847783 211.355867,27.9206339 Z" id="Path" fill="#EFEFEF"></path>
                <g id="Group" transform="translate(34.000000, 43.000000)" fill="#A4AFC1">
                    <polygon id="Path" transform="translate(43.622985, 11.081520) rotate(-45.000000) translate(-43.622985, -11.081520) " points="35.1837838 6.85596758 52.0542516 6.8718382 52.0621869 15.3070721 35.1917191 15.2912015"></polygon>
                    <polygon id="Path" transform="translate(9.287874, 45.346394) rotate(-45.000000) translate(-9.287874, -45.346394) " points="0.84867264 41.1208413 17.7191405 41.1367119 17.7270758 49.5719458 0.856607949 49.5560752"></polygon>
                    <polygon id="Path" transform="translate(9.289555, 9.568785) rotate(-45.000000) translate(-9.289555, -9.568785) " points="5.06400239 1.12958356 13.4992363 1.13751887 13.5151069 18.0079867 5.07987301 18.0000514"></polygon>
                    <path d="M209.605778,225.785714 C202.622222,225.785714 196.939111,220.113286 196.939111,213.142857 C196.939111,206.172429 202.622222,200.5 209.605778,200.5 C216.589333,200.5 222.272444,206.172429 222.272444,213.142857 C222.272444,220.113286 216.589333,225.785714 209.605778,225.785714 Z M209.605778,208.928571 C207.275111,208.928571 205.383556,210.825 205.383556,213.142857 C205.383556,215.460714 207.275111,217.357143 209.605778,217.357143 C211.936444,217.357143 213.828,215.460714 213.828,213.142857 C213.828,210.825 211.936444,208.928571 209.605778,208.928571 Z" id="Shape"></path>
                </g>
                <path d="M193.222222,144.888889 C193.222222,158.298667 203.862222,170.222222 218.555556,170.222222 C221.511111,170.222222 224.382222,169.715556 227,168.702222 L227,199.777778 C227,204.439111 223.216889,208.222222 218.555556,208.222222 L170.591111,208.222222 C172.305333,212.655556 172.499556,217.612444 171.511556,222.273778 C170.717778,226.014667 164.984,242 146.777778,242 C132.76,242 121.444444,230.684444 121.444444,216.666667 C121.444444,213.711111 121.951111,210.84 122.964444,208.222222 L79.2222222,208.222222 C74.5608889,208.222222 70.7777778,204.439111 70.7777778,199.777778 L70.7777778,168.702222 C68.16,169.715556 65.2888889,170.222222 62.3333333,170.222222 C49.6497778,170.222222 37,160.350667 37,144.888889 C37,130.871111 48.3155556,119.555556 62.3333333,119.555556 C65.2888889,119.555556 68.16,120.062222 70.7777778,121.075556 L70.7777778,94.2222222 C70.7777778,89.5608889 74.5608889,85.7777778 79.2222222,85.7777778 L122.964444,85.7777778 C121.250222,81.3444444 121.056,76.3875556 122.044,71.7262222 C122.837778,67.9853333 128.571556,52 146.777778,52 C160.795556,52 172.111111,63.3155556 172.111111,77.3333333 C172.111111,80.2888889 171.604444,83.16 170.591111,85.7777778 L218.555556,85.7777778 C223.216889,85.7777778 227,89.5608889 227,94.2222222 L227,121.075556 C224.382222,120.062222 221.511111,119.555556 218.555556,119.555556 C204.537778,119.555556 193.222222,130.871111 193.222222,144.888889 Z" id="Path" fill="#FF06F4"></path>
                <path d="M139.579743,85.9915 C137.849333,81.529 137.653276,76.5395 138.650606,71.8475 C139.306969,68.762 143.449724,57.5165 155,53.5215 C152.348977,52.595 149.544519,52 146.569577,52 C128.191427,52 122.394979,68.0905 121.602229,71.856 C120.604899,76.548 120.800955,81.546 122.531366,86 L139.579743,86 L139.579743,85.9915 Z" id="Path" fill="#1EE4EC"></path>
                <path d="M137.953378,216.5 C137.953378,213.525 138.46198,210.635 139.479182,208 L122.525804,208 C121.508601,210.635 121,213.525 121,216.5 C121,230.61 132.358763,242 146.430067,242 C149.719023,242 152.482423,241.354 155,240.4785 C145.09075,237.002 137.953378,227.6435 137.953378,216.5 Z" id="Path" fill="#1EE4EC"></path>
                <path d="M87.5714286,199.586207 L87.5714286,168.623448 C84.9585714,169.633103 82.0928571,170.137931 79.1428571,170.137931 C66.4831429,170.137931 53.8571429,160.302207 53.8571429,144.896552 C53.8571429,130.929655 65.1514286,119.655172 79.1428571,119.655172 C82.0928571,119.655172 84.9585714,120.16 87.5714286,121.169655 L87.5714286,94.4137931 C87.5714286,89.7693793 91.3474286,86 96,86 L79.1428571,86 C74.4902857,86 70.7142857,89.7693793 70.7142857,94.4137931 L70.7142857,121.169655 C68.1014286,120.16 65.2357143,119.655172 62.2857143,119.655172 C48.2942857,119.655172 37,130.929655 37,144.896552 C37,160.302207 49.626,170.137931 62.2857143,170.137931 C65.2357143,170.137931 68.1014286,169.633103 70.7142857,168.623448 L70.7142857,199.586207 C70.7142857,204.230621 74.4902857,208 79.1428571,208 L96,208 C91.3474286,208 87.5714286,204.230621 87.5714286,199.586207 Z" id="Path" fill="#1EE4EC"></path>
                <path d="M146.729167,249 C129.3235,249 115.166667,234.764625 115.166667,217.28125 C115.166667,216.57075 115.191917,215.868708 115.234,215.166667 L79.3958333,215.166667 C71.27375,215.166667 64.6666667,208.526875 64.6666667,200.364583 L64.6666667,177.0365 C49.10425,177.992292 31,165.888417 31,145.385417 C31,127.893583 45.1568333,113.666667 62.5625,113.666667 C63.2695,113.666667 63.9680833,113.692042 64.6666667,113.734333 L64.6666667,94.6354167 C64.6666667,86.473125 71.27375,79.8333333 79.3958333,79.8333333 L115.225583,79.8333333 C115.032,76.881375 115.250833,73.836375 115.898917,70.7829167 C117.7085,62.214625 126.47025,46 146.729167,46 C164.134833,46 178.291667,60.2269167 178.291667,77.71875 C178.291667,78.42925 178.266417,79.1312917 178.224333,79.8333333 L218.270833,79.8333333 C226.392917,79.8333333 233,86.473125 233,94.6354167 L233,121.532917 C233,123.630583 231.973167,125.584458 230.256167,126.768625 C228.539167,127.952792 226.35925,128.215 224.406583,127.45375 C222.538083,126.726333 220.476,126.362625 218.270833,126.362625 C207.82575,126.362625 199.333333,134.897083 199.333333,145.393875 C199.333333,154.748792 206.420167,164.425125 218.270833,164.425125 C220.484417,164.425125 222.5465,164.061417 224.406583,163.334 C226.367667,162.581208 228.539167,162.843417 230.256167,164.010667 C231.973167,165.194833 233,167.148708 233,169.237917 L233,200.364583 C233,208.526875 226.392917,215.166667 218.270833,215.166667 L178.23275,215.166667 C178.426333,218.127083 178.2075,221.163625 177.559417,224.217083 C175.75825,232.785375 166.988083,249 146.729167,249 L146.729167,249 Z M70.9791667,162.894167 C72.23325,162.894167 73.4789167,163.274792 74.5478333,164.002208 C76.2648333,165.194833 77.2916667,167.148708 77.2916667,169.237917 L77.2916667,200.364583 C77.2916667,201.531833 78.2343333,202.479167 79.3958333,202.479167 L122.994167,202.479167 C125.0815,202.479167 127.02575,203.511083 128.204083,205.236583 C129.382417,206.962083 129.634917,209.169708 128.885833,211.115125 C128.178833,212.959042 127.800083,215.090542 127.800083,217.28125 C127.800083,227.769583 136.2925,236.3125 146.737583,236.3125 C161.938083,236.3125 165.186917,221.730333 165.212167,221.586542 C165.994917,217.898708 165.767667,214.1855 164.580917,211.115125 C163.831833,209.169708 164.075917,206.970542 165.262667,205.245042 C166.441,203.519542 168.38525,202.487625 170.472583,202.487625 L218.27925,202.487625 C219.44075,202.487625 220.383417,201.540292 220.383417,200.373042 L220.383417,177.044958 C219.684833,177.08725 218.98625,177.112625 218.27925,177.112625 C200.873583,177.112625 186.71675,162.87725 186.71675,145.393875 C186.71675,127.902042 200.873583,113.675125 218.27925,113.675125 C218.98625,113.675125 219.684833,113.7005 220.383417,113.742792 L220.383417,94.6354167 C220.383417,93.4681667 219.44075,92.5208333 218.27925,92.5208333 L170.472583,92.5208333 C168.38525,92.5208333 166.441,91.4889167 165.262667,89.7634167 C164.084333,88.0379167 163.831833,85.83875 164.580917,83.884875 C165.30475,82.007125 165.666667,79.9348333 165.666667,77.71875 C165.666667,67.2219583 157.17425,58.6875 146.729167,58.6875 C131.528667,58.6875 128.279833,73.2696667 128.254583,73.4134583 C127.48025,77.0928333 127.699083,80.8145 128.885833,83.884875 C129.634917,85.83875 129.390833,88.0379167 128.204083,89.7634167 C127.02575,91.4889167 125.0815,92.5208333 122.994167,92.5208333 L79.3958333,92.5208333 C78.2343333,92.5208333 77.2916667,93.4681667 77.2916667,94.6354167 L77.2916667,121.532917 C77.2916667,123.630583 76.2648333,125.584458 74.5478333,126.768625 C72.8308333,127.952792 70.6509167,128.215 68.69825,127.45375 C66.82975,126.717875 64.7676667,126.354167 62.5625,126.354167 C52.1174167,126.354167 43.625,134.888625 43.625,145.385417 C43.625,157.29475 53.2536667,164.416667 62.5625,164.416667 C64.7760833,164.416667 66.8381667,164.052958 68.69825,163.325542 C69.4389167,163.037958 70.21325,162.894167 70.9791667,162.894167 Z" id="Shape" fill="#000000"></path>
            </g>
        </g>
    </g>
</svg>